<?xml version="1.0" encoding="UTF-8" standalone="no"?>
<svg
   xmlns:dc="http://purl.org/dc/elements/1.1/"
   xmlns:cc="http://creativecommons.org/ns#"
   xmlns:rdf="http://www.w3.org/1999/02/22-rdf-syntax-ns#"
   xmlns:svg="http://www.w3.org/2000/svg"
   xmlns="http://www.w3.org/2000/svg"
   xmlns:sodipodi="http://sodipodi.sourceforge.net/DTD/sodipodi-0.dtd"
   xmlns:inkscape="http://www.inkscape.org/namespaces/inkscape"
   version="1.0"
   width="75.000000pt"
   height="75.000000pt"
   viewBox="0 0 75.000000 75.000000"
   preserveAspectRatio="xMidYMid meet"
   id="svg6"
   sodipodi:docname="GPShell.svg"
   inkscape:version="0.92.3 (2405546, 2018-03-11)"
   inkscape:export-filename="/home/widerstand/Projekte/globalplatform/gpshell/src/GPShell-large.png"
   inkscape:export-xdpi="613.58191"
   inkscape:export-ydpi="613.58191">
  <metadata
     id="metadata12">
    <rdf:RDF>
      <cc:Work
         rdf:about="">
        <dc:format>image/svg+xml</dc:format>
        <dc:type
           rdf:resource="http://purl.org/dc/dcmitype/StillImage" />
      </cc:Work>
    </rdf:RDF>
  </metadata>
  <defs
     id="defs10" />
  <sodipodi:namedview
     pagecolor="#ffffff"
     bordercolor="#666666"
     borderopacity="1"
     objecttolerance="10"
     gridtolerance="10"
     guidetolerance="10"
     inkscape:pageopacity="0"
     inkscape:pageshadow="2"
     inkscape:window-width="1821"
     inkscape:window-height="1309"
     id="namedview8"
     showgrid="false"
     inkscape:zoom="6.675088"
     inkscape:cx="17.750045"
     inkscape:cy="28.171286"
     inkscape:window-x="591"
     inkscape:window-y="427"
     inkscape:window-maximized="0"
     inkscape:current-layer="svg6" />
  <g
     transform="translate(0.000000,75.000000) scale(0.100000,-0.100000)"
     fill="#000000"
     stroke="none"
     id="g4">
    <path
       d="M320 730 c0 -19 -7 -20 -122 -21 -68 -1 -140 -1 -160 0 -36 3 -38 1 -38 -28 0 -24 4 -31 19 -31 21 0 32 -29 24 -60 -3 -11 -14 -20 -24 -20 -14 0 -19 -7 -19 -30 0 -23 4 -30 20 -30 18 0 20 -7 20 -65 0 -58 -2 -65 -20 -65 -16 0 -20 -7 -20 -30 0 -23 5 -30 19 -30 21 0 32 -29 24 -60 -3 -11 -14 -20 -24 -20 -14 0 -19 -7 -19 -30 0 -23 5 -30 19 -30 10 0 21 -9 24 -20 8 -31 -3 -60 -24 -60 -15 0 -19 -7 -19 -31 0 -29 2 -31 37 -28 21 1 93 1 160 0 112 -1 122 -3 128 -21 9 -28 55 -28 55 0 0 19 7 20 148 21 81 1 164 1 185 0 35 -3 37 -1 37 28 0 24 -4 31 -19 31 -36 0 -36 74 0 85 26 9 26 55 0 55 -36 0 -36 74 0 85 27 9 26 55 -1 55 -18 0 -20 7 -20 65 0 58 2 65 20 65 27 0 28 46 1 55 -36 11 -36 85 0 85 15 0 19 7 19 31 0 29 -2 31 -37 28 -21 -1 -104 -1 -185 0 -141 1 -148 2 -148 21 0 16 -7 20 -30 20 -23 0 -30 -4 -30 -20z m253 -79 l77 -1 0 -40 c0 -43 3 -42 -78 -42 -33 -1 -47 4 -58 21 -14 20 -24 21 -139 21 -115 0 -125 -1 -139 -21 -11 -17 -25 -22 -58 -21 -81 0 -78 -1 -78 42 l0 39 83 3 c74 3 166 3 390 -1z m-109 -107 c8 -20 8 -318 0 -338 -5 -13 -22 -16 -83 -16 -47 0 -82 5 -89 12 -13 13 -18 311 -6 342 5 13 23 16 89 16 66 0 84 -3 89 -16z m-239 -99 l0 -60 -62 -3 -63 -3 0 66 0 66 63 -3 62 -3 0 -60z m425 0 l0 -66 -62 3 -63 3 -3 49 c-5 72 -1 76 68 76 l60 0 0 -65z m-427 -124 c5 0 7 -18 5 -38 l-3 -38 -62 -3 -63 -3 0 40 c0 22 5 41 13 44 10 3 83 2 110 -2z m420 0 c4 0 7 -19 7 -41 l0 -41 -62 3 -63 3 -3 34 c-2 19 2 37 8 41 10 6 79 7 113 1z m-407 -159 c8 -12 28 -22 47 -24 20 -2 33 -9 35 -19 4 -24 -11 -26 -120 -21 l-98 4 0 38 c0 43 6 46 78 44 31 -1 48 -7 58 -22z m402 19 c7 -1 12 -16 12 -41 l0 -40 -77 -1 c-43 -1 -98 -3 -123 -5 -52 -3 -76 7 -67 30 5 12 20 16 61 16 42 0 58 4 68 18 16 24 34 29 78 26 19 -2 41 -3 48 -3z"
       id="path2" />
  </g>
  <path
     style="fill:#ffff00;stroke-width:0.14981076"
     d="M 16.760419,24.067005 C 15.057472,23.906874 14.15325,23.482108 13.735117,22.645842 13.461021,22.09765 13.431138,21.687115 13.384348,17.826935 l -0.05115,-4.219663 0.800201,-0.08253 c 0.440111,-0.04539 4.103528,-0.202698 8.140928,-0.349565 11.127654,-0.404789 41.396301,-0.304936 60.872344,0.200811 l 3.494821,0.09075 -0.04917,4.364836 c -0.04566,4.052936 -0.07076,4.402303 -0.351309,4.889173 -0.728238,1.263817 -2.718484,1.569724 -9.510471,1.461786 -3.722325,-0.05915 -4.213744,-0.0968 -5.093566,-0.390246 -1.251988,-0.417568 -1.973891,-0.97364 -3.00246,-2.31275 -2.08379,-2.712918 -2.80959,-2.8228 -18.645194,-2.8228 -15.876819,0 -16.547671,0.101898 -18.623488,2.828805 -0.992318,1.303564 -1.861369,1.952337 -3.173978,2.369474 -0.698288,0.22191 -1.532286,0.267505 -5.468092,0.298942 -2.554274,0.0204 -5.237778,-0.01873 -5.963344,-0.08695 z"
     id="path3717"
     inkscape:connector-curvature="0"
     transform="scale(0.75)" />
  <path
     style="fill:#ffff00;stroke-width:0.14981076"
     d="m 13.36059,40.698038 v -8.689024 l 0.861412,-5.36e-4 c 1.055512,-6.56e-4 13.175171,0.567379 14.681454,0.688103 l 1.086128,0.08705 v 7.927188 7.927188 l -0.56179,0.0016 c -0.308985,8.8e-4 -3.932532,0.168864 -8.052328,0.373299 -4.119796,0.204433 -7.608514,0.372248 -7.752707,0.372924 -0.246685,0.0012 -0.262169,-0.511941 -0.262169,-8.687796 z"
     id="path3719"
     inkscape:connector-curvature="0"
     transform="scale(0.75)" />
  <path
     style="fill:#ffff00;stroke-width:0.14981076"
     d="m 45.120471,74.399759 c -3.651579,-0.335893 -5.901614,-0.930348 -6.246712,-1.650371 -0.306862,-0.640246 -0.616638,-2.78051 -0.85687,-5.92016 -0.492869,-6.441439 -0.601371,-10.285465 -0.606496,-21.487056 -0.0053,-11.506743 0.103848,-14.605766 0.59823,-16.990769 0.337415,-1.62776 1.017937,-2.147562 3.395047,-2.59323 1.204243,-0.225776 2.376861,-0.261489 8.585651,-0.261489 6.24927,0 7.377284,0.03478 8.614118,0.265635 2.666512,0.497694 3.190024,0.983045 3.436424,3.185922 0.687899,6.149998 0.687475,35.930169 -5.99e-4,42.081426 -0.17659,1.578664 -0.449975,2.125035 -1.298353,2.594813 -1.244387,0.689061 -2.384396,0.80393 -8.504429,0.85691 -3.131045,0.02711 -6.33325,-0.0096 -7.116011,-0.08163 z"
     id="path3721"
     inkscape:connector-curvature="0"
     transform="scale(0.75)" />
  <path
     style="fill:#ffff00;stroke-width:0.14981076"
     d="m 78.378459,49.004204 c -3.666618,-0.188528 -7.039482,-0.348046 -7.495254,-0.354486 l -0.828675,-0.01171 -0.261536,-4.45687 c -0.296925,-5.05993 -0.326388,-7.921821 -0.09277,-9.011138 0.34016,-1.58611 1.485779,-2.501435 3.584672,-2.864072 0.545293,-0.09421 3.69295,-0.205802 7.153463,-0.2536 l 6.179694,-0.08536 v 8.710044 8.710045 l -0.786506,-0.02004 c -0.432579,-0.01103 -3.786467,-0.17429 -7.453086,-0.362818 z"
     id="path3723"
     inkscape:connector-curvature="0"
     transform="scale(0.75)" />
  <path
     style="fill:#ffff00;stroke-width:0.14981076"
     d="m 78.194723,67.673023 c -4.42684,-0.220819 -8.074465,-0.431166 -8.105833,-0.467437 -0.03137,-0.03627 -0.164453,-1.380538 -0.295747,-2.987259 -0.330735,-4.047415 -0.03239,-6.140696 0.968689,-6.796628 0.696381,-0.456287 2.470028,-0.610574 7.017384,-0.610431 4.21101,1.32e-4 7.358829,0.204747 7.940717,0.516164 0.599,0.320575 0.891865,2.757847 0.895522,7.452686 0.002,2.578363 -0.03981,3.328884 -0.184667,3.313841 -0.102995,-0.0107 -3.809224,-0.200117 -8.236065,-0.420936 z"
     id="path3725"
     inkscape:connector-curvature="0"
     transform="scale(0.75)" />
  <path
     style="fill:#ffff00;stroke-width:0.14981076"
     d="m 54.361258,87.211086 c -1.519958,-0.288444 -2.739904,-0.866653 -3.110366,-1.474198 -0.501597,-0.822605 -0.335569,-2.172959 0.358874,-2.918808 0.928385,-0.99711 2.067327,-1.215835 7.157041,-1.374457 7.054766,-0.219862 7.961791,-0.486837 9.896798,-2.91304 1.121276,-1.405911 2.213244,-2.216148 3.56558,-2.645652 1.391986,-0.442096 4.394469,-0.524089 8.07511,-0.220518 1.594783,0.131535 3.35843,0.239153 3.919215,0.239153 0.947053,0 1.046294,0.03171 1.394581,0.445628 0.684444,0.813416 0.895578,2.209089 0.965934,6.385183 l 0.06334,3.759689 -1.02588,0.09687 c -0.564234,0.05328 -2.744959,0.09741 -4.846054,0.09807 -4.138767,0.0013 -11.603154,0.215441 -16.029752,0.459868 -5.132049,0.28338 -9.093885,0.307113 -10.384422,0.06221 z"
     id="path3727"
     inkscape:connector-curvature="0"
     transform="scale(0.75)" />
  <path
     style="fill:#ffff00;stroke-width:0.14981076"
     d="M 23.622627,86.756634 C 19.338039,86.567911 15.276295,86.408285 14.596529,86.40191 l -1.235939,-0.01159 0.0046,-3.108574 c 0.0077,-5.206107 0.300735,-6.362067 1.801785,-7.108792 1.390041,-0.6915 4.855084,-0.900889 9.429396,-0.569809 3.366425,0.243656 5.186102,0.902484 6.329114,2.291504 1.876923,2.280891 4.004657,3.453256 6.854233,3.776632 1.95097,0.2214 3.707442,0.960781 4.250176,1.7891 0.38559,0.588484 0.480732,1.72834 0.191024,2.288573 -0.770927,1.490805 -3.846592,1.657449 -18.598317,1.00768 z"
     id="path3729"
     inkscape:connector-curvature="0"
     transform="scale(0.75)" />
  <path
     style="fill:#ffff00;stroke-width:0.14981076"
     d="m 13.400696,64.405019 c 0.04048,-2.038984 0.153629,-4.111734 0.251453,-4.606109 0.253102,-1.279097 0.881981,-2.496857 1.431265,-2.771499 0.80625,-0.403125 12.777698,-0.20211 14.556843,0.244427 0.764287,0.191824 0.922003,1.981071 0.571693,6.485751 l -0.268447,3.452022 -0.463845,0.071 c -0.255114,0.03905 -3.699756,0.209194 -7.65476,0.378098 -3.955004,0.168904 -7.484963,0.340051 -7.844354,0.380327 l -0.653438,0.07323 z"
     id="path3731"
     inkscape:connector-curvature="0"
     transform="scale(0.75)" />
</svg>
